# xmcd CD database file
#
# Track frame offsets:
#	182
#	23960
#	40647
#	64380
#	85872
#	109660
#	132742
#	145772
#	171430
#	195735
#	220607
#	244592
#
# Disc length: 3604 seconds
#
# Revision: 0
# Processed by: cddbd v1.4PL0 Copyright (c) Steve Scherf et al.
# Submitted via: CDex 1.50beta10
#
DISCID=ab0e120c
DTITLE=Jesse James - Operator Please Put Me Through
DYEAR=1993
DGENRE=Blues
TTITLE0=Operator Please Put Me Through
TTITLE1=We're Gonna Make It
TTITLE2=Visiting Rights
TTITLE3=Forever
TTITLE4=Something To Believe In
TTITLE5=I Can Do Bad By Myself
TTITLE6=Believe In Me Baby
TTITLE7=Where's My Mommie (Live)
TTITLE8=I've Been There Before
TTITLE9=Why
TTITLE10=One And Only Love
TTITLE11=What Happened To The Dream (Did He Die In Vain?)
EXTD=YEAR: 1993
EXTT0=
EXTT1=
EXTT2=
EXTT3=
EXTT4=
EXTT5=
EXTT6=
EXTT7=
EXTT8=
EXTT9=
EXTT10=
EXTT11=
PLAYORDER=
